<?xml version="1.0" encoding="utf-8"?>
<!-- Generator: Adobe Illustrator 27.5.0, SVG Export Plug-In . SVG Version: 6.00 Build 0)  -->
<svg version="1.1" id="Layer_1" xmlns="http://www.w3.org/2000/svg" xmlns:xlink="http://www.w3.org/1999/xlink" x="0px" y="0px"
	 viewBox="0 0 5000 3500" style="enable-background:new 0 0 5000 3500;" xml:space="preserve">
<g>
	<path d="M4921.998,2377.937c-126.367,0.198-252.735,0.655-379.103,1.02c-21.9,0.063-43.8,0.008-68.617,0.008
		c3.523-8.403,5.4-12.607,7.065-16.894c11.214-28.885,2.003-42.504-29.095-42.939c-9.596-0.134-19.195,0.026-28.792,0.033
		c-15.288,0.01-30.575,0.003-45.862,0.003c31.662-8.038,43.465-29.083,43.873-58.941c0.23-16.789,0.806-33.578,0.736-50.365
		c-0.787-188.752-1.375-377.504-2.624-566.253c-0.994-150.346-1.752-300.708-4.768-451.02
		c-1.375-68.539-15.627-80.793-78.982-93.184c-89.435-17.492-179.647-17.533-269.85-6.724c-24.466,2.932-49.192,7.141-72.619,14.508
		c-36.419,11.452-44.796,25.139-45.734,64.316c-25.154,19.068-37.827,46.669-42.933,77.167
		c-8.698,51.964-17.784,104.064-22.306,156.486c-14.5,168.053-25.939,336.372-40.716,504.399
		c-6.716,76.371-17.71,152.408-28.341,228.376c-4.864,34.756-12.271,69.421-29.323,100.832
		c-31.139,57.359-99.877,62.194-136.707,8.364c-11.409-16.676-18.809-37.178-23.678-57.002
		c-8.368-34.074-12.345-69.203-19.904-103.506c-12.019-54.549-23.156-109.467-38.988-162.951
		c-14.297-48.305-44.15-86.559-86.749-105.583c-28.945-50.063-74.015-58.919-121.048-64.951c1.974-6.271,3.832-11.533,5.286-16.906
		c4.943-18.283,3.549-21.453-14.162-29.398c-10.194-4.573-20.536-8.953-31.121-12.502
		c-112.844-37.842-225.407-76.562-338.713-112.973c-191.547-61.554-388.027-100.956-587.505-125.563
		c-131.229-16.188-263.085-19.707-395.157-15.103c-150.231,5.237-294.508,36.461-431.946,98.477
		c-123.28,55.626-242.786,118.289-358.911,187.564c-9.919,5.917-21.795,9.622-33.245,11.74
		c-96.625,17.864-193.642,33.715-289.988,52.941c-101.227,20.2-200.35,48.43-295.287,89.739
		c-38.222,16.63-74.746,36.26-106.656,63.678c-23.864,20.505-40.852,44.7-44.697,76.765c-2.09,17.432-5.111,34.776-6.603,52.254
		c-3.77,44.125,0.07,87.862,8.548,131.215c7.392,37.805,29.087,63.898,66.126,74.988c26.71,7.998,54.039,14.177,81.396,19.639
		c11.553,2.307,23.992,1.755,35.847,0.615c21.368-2.054,31.486-13.287,31.78-34.617c0.165-11.955-1.303-23.937-2.111-35.902
		c-4.201-62.068,4.239-121.793,38.402-174.977c53.734-83.653,133.35-122.239,230.801-123.045
		c96.003-0.796,169.249,41.292,215.779,126.368c29.016,53.055,41.138,110.543,40.963,170.731
		c-0.055,19.185-1.515,38.364-1.613,57.549c-0.099,19.183,9.145,29.481,28.125,32.304c4.708,0.7,9.572,0.447,14.366,0.451
		c441.496,0.4,882.992,0.783,1324.488,1.154c7.197,0.006,14.417,0.193,21.588-0.274c23.983-1.562,34.646-13.385,32.584-37.514
		c-1.016-11.878-5.312-23.491-6.162-35.364c-2.044-28.585-5.049-57.347-3.788-85.866c1.854-41.889,14.438-81.626,31.73-119.822
		c4.907-10.836,9.843-21.814,12.972-33.217c9.16-11.109,24.22-25.465,37.618-37.04c6.863-2.963,13.027-7.647,19.586-11.43
		c140.978-81.321,312.314-45.85,396.968,101.069c29.007,50.343,41.95,104.875,43.663,162.599
		c0.88,29.661,13.468,39.498,41.628,31.943c30.833-8.273,62.05-16.093,91.625-27.827c34.002-13.489,66.813-30.237,99.31-47.165
		c18.081-9.418,32.316-24.569,37.633-44.844c14.983-57.131,28.99-114.519,43.127-171.868c2.629-10.663,0.2-20.192-7.692-28.713
		c-17.215-18.588-33.835-37.726-50.691-56.647c20.644,3.433,41.294,6.867,62.777,10.439c3.843-6.744,7.678-13.476,12.195-21.407
		c4.812,3.167,8.855,5.485,12.521,8.296c31.522,24.174,47.392,58.009,55.964,95.283c13.604,59.157,25.586,118.687,38.343,178.04
		c8.89,41.363,15.704,83.366,36.849,121.012c45.08,80.266,137.505,91.271,200.379,23.915c22.958-24.595,36.325-54.166,45.751-85.96
		c21.24-71.651,30.841-145.553,38.083-219.395c16.618-169.442,30.231-339.179,45.03-508.799c3.11-35.632,6.071-71.276,8.799-103.37
		c0,39.826-0.06,83.001,0.01,126.175c0.401,247.94,0.802,495.88,1.304,743.821c0.046,22.736-3.751,46.111,14.202,68.362
		c-13.508,0-22.226-0.216-30.927,0.052c-11.955,0.367-24.104-0.08-35.802,1.945c-18.552,3.21-23.807,13.199-17.798,31.152
		c3.475,10.38,7.634,20.531,11.576,31.022c-33.981,7.822-922.506,15.874-946.2,9.013c148.877-87.739,147.48-252.6,75.719-341.083
		c-83.42-102.859-230.184-117.221-327.896-29.557c-47.293,42.431-73.683,95.593-75.723,160.107
		c-3.053,96.587,43.446,164.601,122.208,215.668c-584.59,0-1169.181,0-1755.32,0c118.375-68.228,163.443-149.587,141.647-253.8
		c-19.385-92.677-99.132-165.269-194.558-177.101c-91.486-11.343-185.157,39.87-225.099,122.915
		c-21.833,45.393-29.037,93.215-20.29,142.507c11.888,66.991,48,118.703,105.944,156.394c-10.446,2.033-19.757,2.036-29.068,2.032
		c-224.747-0.093-449.495-0.19-674.243-0.262c-7.192-0.002-14.715-0.981-21.458,0.83c-4.191,1.125-7.198,6.653-10.738,10.205
		c3.862,3.19,7.283,7.947,11.692,9.186c5.961,1.675,12.682,0.76,19.076,0.761c83.18,0.002,166.361-0.006,249.541-0.059
		c157.563-0.101,315.126-0.203,472.689-0.421c9.56-0.014,19.38,0.062,28.563-2.097c4.261-1,8.989-6.797,10.243-11.323
		c0.779-2.81-3.766-8.57-7.31-10.801c-7.388-4.65-15.766-7.702-23.62-11.645c-73.181-36.75-111.631-96.466-113.968-177.917
		c-3.75-130.685,111.845-230.747,238.418-207.715c85.438,15.547,156.886,90.455,165.934,173.972
		c10.027,92.542-37.337,173.009-123.66,208.732c-16.902,6.995-35.102,10.809-52.186,17.427c-5.691,2.203-12.85,7.958-13.902,13.183
		c-1.896,9.406,6.186,14.108,14.924,14.821c13.519,1.102,27.112,1.827,40.674,1.827c341.521-0.003,683.04-0.036,1024.56-0.25
		c259.137-0.162,518.275-0.539,777.411-0.989c14.973-0.027,29.943-1.57,44.264-2.37c4.128-22.427,2.89-25.334-18.131-28.941
		c-29.699-5.098-56.985-15.385-81.47-32.937c-69.347-49.713-98.926-138.671-73.784-221.737
		c25.854-85.421,100.769-142.761,190.546-145.843c93.499-3.209,178.2,58.521,203.241,148.123
		c25.436,91.02-15.292,188.282-99.443,232.38c-21.557,11.296-46.517,15.977-69.57,24.615c-5.951,2.23-14.4,7.43-15.034,12.16
		c-1.244,9.283,7.142,13.072,16.069,13.497c7.185,0.342,14.374,0.976,21.554,0.902c21.589-0.22,43.174-0.914,64.764-1.088
		c300.714-2.421,601.428-4.778,902.144-7.191c12.794-0.103,25.638,0.031,38.363-1.064c14.779-1.271,18.097-6.2,14.228-20.42
		c-3.917-14.396-8.7-28.555-13.586-44.375c6.541-1.54,11.049-3.571,15.533-3.516c186.053,2.293,372.104,4.774,559.4,7.248
		c-1.833,5.03-3.72,10.884-6.069,16.546c-14.14,34.09-9.913,40.565,27.41,40.572c99.977,0.018,199.954-0.114,299.931-0.206
		c47.188-0.044,94.377-0.046,141.565-0.276c9.957-0.048,21.115,1.25,24.993-12.771
		C4944.54,2375.269,4932.616,2377.92,4921.998,2377.937z M598.468,1901.918c-0.421,0.315-0.777,0.581-0.977,0.731
		C597.662,1902.522,597.957,1902.3,598.468,1901.918z M485.022,1976.322c21.503-11.772,43.112-23.899,65.941-32.578
		c38.618-14.682,78.139-27.008,117.416-39.915c8.132-2.672,16.853-3.556,26.842-2.589c-3.73,3.084-7.191,6.586-11.231,9.192
		c-58.921,38.007-122.699,63.593-192.011,75.182c-7.324,1.224-14.346,4.252-21.486,6.574
		C475.192,1986.637,479.068,1979.582,485.022,1976.322z M3413.902,1945.843c4.786,5.216,6.309,16.552,4.666,24.031
		c-10.11,46.011-22.178,91.589-32.36,137.586c-7.159,32.332-26.483,52.901-55.216,67.819
		c-53.616,27.836-110.694,45.445-168.752,60.556c-3.551,0.924-7.552,0.119-12.173,0.119c-2.292-23.561-3.021-45.902-6.836-67.703
		c-15.81-90.311-57.136-166.061-133.233-219.353c-103.455-72.452-233.561-70.434-345.637,0.861l-0.409-0.5
		c-0.864,0.706-2.137,1.763-3.585,2.975c-1.675,1.032-3.228,2.175-4.17,3.531c-10.165,8.703-26.548,23.412-38.545,37.543
		c-2.29,0.318-4.574,1.044-5.996,2.08c-6.356,4.629-11.791,10.744-16.887,16.847c-36.673,43.94-58.506,94.906-70.889,150.352
		c-2.957,13.24-6.471,26.365-10.036,39.458c-3.968,14.576-13.474,23.374-28.591,25.298c-16.599,2.112-33.233,5.209-49.888,5.446
		c-214.315,3.037-428.646,5.101-642.954,8.534c-149.518,2.395-299.009,6.475-448.509,9.938c-11.978,0.278-23.921,1.779-35.897,2.417
		c-22.506,1.2-28.384-4.655-27.873-27.623c0.125-5.591,0.389-11.224,1.206-16.746c4.859-32.85,0.878-65.305-3.235-97.904
		c-6.406-50.791-13.277-101.56-14.392-152.688c0.141-0.656,0.225-1.334,0.225-2.032v-33.949c0.332-8.773,0.866-17.559,1.653-26.361
		c4.546-50.845,8.094-54.463,59.223-56.571c86.291-3.558,172.589-7.032,258.85-11.26c150.143-7.36,300.283-14.866,450.38-23.107
		c81.433-4.471,162.932-8.907,244.125-16.359c113.797-10.444,227.331-23.753,340.992-35.707
		c112.415-11.823,222.311-35.483,329.933-69.877c5.305-1.695,10.699-3.555,15.506-6.295c21.819-12.436,22.39-32.452,0.26-43.527
		c-22.1-11.06-44.715-21.756-68.158-29.36c-172.297-55.886-348.447-94.86-528.433-115.283
		c-136.11-15.444-272.643-19.404-409.542-10.735c-119.246,7.551-233.918,33.695-343.538,81.046
		c-130.017,56.161-244.999,137.62-361.292,216.775c-3.921,2.669-8.118,5.726-10.473,9.635c-1.664,2.763-1.837,8.281-0.091,10.714
		c0.337,0.47,0.839,0.883,1.408,1.262v158.96c0,0.478,0.073,0.936,0.141,1.395c-0.1,8.549-0.124,17.099,0.009,25.643
		c1.289,82.916,26.065,164.254,15.269,248.293c-3.631,28.258,13.361,42.428,42.568,42.567c16.751,0.079,33.5-2.425,50.271-2.781
		c222.278-4.718,444.551-9.738,666.841-13.672c138.339-2.449,276.712-2.984,415.063-4.94c19.061-0.27,38.197-3.028,57.08-6.014
		c20.836-3.296,34.468-16.34,40.713-36.256c4.292-13.689,6.919-27.891,10.675-41.759c9.232-34.098,15.756-69.268,37.757-98.447
		c-0.098,2.048-0.046,4.145-0.656,6.027c-21.743,67.151-23.318,134.86-6.214,203.225c1.246,4.978,0.164,10.538,0.164,19.116
		c-18.392,0.349-34.907,0.947-51.42,0.934c-433.992-0.359-867.985-0.765-1301.977-1.313c-8.336-0.01-16.671-1.821-25.365-2.833
		c0-12.91-0.417-23.218,0.073-33.483c2.067-43.311,0.2-86.274-10.402-128.543c-15.703-62.608-43.376-118.528-92.947-161.429
		c-68.021-58.87-147.913-73.648-233.576-56.001c-110.901,22.845-185.99,88.313-218.714,198.089
		c-13.608,45.652-14.399,92.885-9.327,140.234c2.328,21.725-1.857,27.842-23.007,25.473c-29.983-3.357-59.735-9.667-89.219-16.338
		c-36.944-8.358-56.096-33.164-62.752-70.027c-8.894-49.259-9.925-98.626-3.408-147.949c1.47-11.122,1.884-23.012,5.495-33.862
		c0.682,0.02,1.419-0.02,2.236-0.161c86.509-14.856,201.828-54.899,270.543-110.145c5.236-4.208,9.311-9.86,17.5-18.699
		c-11.562-3.174-18.723-7.212-25.458-6.596c-19.716,1.803-39.443,4.6-58.829,8.621c-21.151,4.387-41.957,10.436-62.898,15.832
		c6.902-4.135,13.497-9.162,20.939-11.728c49.038-16.906,97.723-35.213,147.595-49.256
		c126.302-35.565,255.562-57.062,385.026-77.349c18.719-2.933,39.491-4.825,54.991-14.281
		c100.431-61.265,204.845-114.783,310.381-166.498c153.041-74.994,314.292-115.913,484.552-120.974
		c122.392-3.637,244.543-0.835,366.33,13.747c114.313,13.686,228.104,30.569,340.341,56.206
		c206.674,47.208,408.057,112.011,606.568,186.001c8.067,3.008,15.776,6.974,25.306,11.233
		c-6.102,21.208-11.851,41.19-18.855,65.536c-11.607-21.078-27.279-25.91-44.438-28.677c-35.32-5.697-70.287-1.364-104.947,4.397
		c-21.152,3.516-42.04,9.579-62.443,16.325c-14.964,4.948-32.755,11.106-32.216,30.606c0.558,20.182,19.6,22.972,34.64,27.362
		c12.996,3.794,26.387,6.937,39.82,8.405c54.682,5.976,109.788,26.812,164.241-5.287
		C3351.115,1880.061,3383.167,1912.348,3413.902,1945.843z M1263.933,1793.567c70.171-45.904,139.735-92.767,210.62-137.542
		c130.345-82.334,272.109-133.955,425.541-151.299c128.362-14.509,256.964-12.899,385.597-2.165
		c149.252,12.455,296.794,35.201,441.586,73.766c70.174,18.69,141.17,35.198,207.904,65.035c8.271,3.699,16.249,8.053,24.363,12.103
		c-0.188,1.719-0.377,3.438-0.566,5.156c-8.031,2.707-15.975,5.721-24.112,8.063c-26.091,7.51-52.18,15.045-78.41,22.053
		c-26.98,7.21-53.79,15.812-81.246,20.362c-196.509,32.561-394.474,52.829-593.083,66.58
		c-114.063,7.898-228.295,13.49-342.496,19.226c-149.342,7.501-298.737,13.96-448.09,21.235
		c-35.119,1.71-70.157,5.054-105.253,7.337c-9.444,0.615-16.787,3.817-22.356,9.207V1793.567z M3287.366,1838.883
		c-6.295,2.894-13.836,4.358-20.801,4.31c-52.984-0.357-104.779-9.494-155.992-22.399c-2.705-0.682-5.093-2.629-12.059-6.357
		c12.976-5.49,21.916-10.205,31.409-13.127c41.485-12.77,83.968-19.332,127.447-18.358c7.938,0.178,15.955,1.184,23.742,2.762
		c15.259,3.091,22.656,11.287,24.365,25.332C3307.229,1825.455,3298.771,1833.64,3287.366,1838.883z M3432.458,1861.804
		c-16.603-1.762-30.792-2.629-44.755-4.889c-24.257-3.928-40.46-20.771-43.77-44.202c-3.271-23.167,11.61-38.98,34.615-35.706
		c26.57,3.781,49.498,15.962,72.289,32.503C3444.489,1827.578,3438.512,1844.582,3432.458,1861.804z M3986.495,1133.178
		c16.105-6.695,32.723-13.744,49.779-16.306c99.503-14.942,199.075-15.568,298.275,3.142c11.667,2.201,23.406,5.851,34.055,11.01
		c7.87,3.811,14.022,11.169,20.939,16.946c-31.112,1.296-61.385-3.643-75.081,34.519c-82.482-12.153-164.531-10.677-247.707-3.149
		c-1.113-2.842-2.416-5.544-3.243-8.385c-5.295-18.171-8.192-21.197-26.472-20.665c-14.321,0.417-28.594,2.773-42.863,4.491
		c-7.685,0.925-15.313,2.323-24.298,3.713C3968.713,1143.471,3977.44,1136.943,3986.495,1133.178z M3934.112,1247.645
		c-6.647,59.532-13.832,119.031-18.993,178.699c-11.361,131.355-20.591,262.9-32.653,394.187
		c-8.111,88.283-18.417,176.412-30.07,264.301c-5.336,40.237-15.478,79.924-24.967,119.494c-6.384,26.62-18.489,51.056-36.536,72.1
		c-51.369,59.899-133.503,52.018-171.982-16.701c-19.87-35.485-26.041-75.271-34.232-114.298
		c-11.483-54.707-21.722-109.679-33.705-164.273c-4.255-19.383-11.147-38.344-18.449-56.862
		c-11.096-28.139-29.517-50.9-54.278-68.618c-5.688-4.07-15.842-5.851-12.14-21.247c11.4,7.487,22.242,13.191,31.391,20.904
		c20.596,17.365,33.978,39.972,44.045,64.766c22.431,55.241,31.744,113.662,42.206,171.831
		c6.078,33.79,10.657,68.008,19.435,101.098c6.048,22.794,15.109,45.995,28.079,65.522c43.066,64.834,129.844,62.008,167.323-6.252
		c14.692-26.759,24.763-57.722,29.539-87.941c13.583-85.947,24.98-172.323,34.18-258.856c9.544-89.776,15.782-179.91,22.931-269.93
		c4.301-54.174,6.958-108.48,11.47-162.635c6.234-74.812,11.302-149.819,28.166-223.304c1.427-6.215,3.096-12.417,5.214-18.427
		c14.615-41.492,51.643-63.249,99.97-56.986c-15.336,4.063-28.364,7.174-41.186,10.979
		C3957.584,1194.478,3937.826,1214.371,3934.112,1247.645z M4247.449,2303.707c-79.122,1.997-158.273,2.836-237.411,4.151
		c-3.199,0.053-6.402,0.24-9.593,0.118c-25.156-0.963-38.18-13.409-38.539-38.615c-0.744-51.963-1.041-103.935-1.103-155.903
		c-0.21-172.693-0.715-345.387-0.151-518.078c0.343-105.529,2.306-211.055,3.898-316.577c0.217-14.335,2.855-28.617,3.75-42.962
		c0.938-15.061,9.04-23.813,23.205-26.352c14.873-2.667,29.965-4.186,45.003-5.832c90.85-9.946,181.762-13.659,272.574-0.18
		c13.959,2.072,20.554-3.904,26.626-14.584c9.87-17.356,33.598-25.118,50.516-15.056c5.124,3.047,8.275,13.04,8.555,20.004
		c1.669,41.535,2.938,83.112,3.042,124.678c0.342,136.723,0.129,273.447,0.129,410.17c1.08,0,2.162,0,3.242,0
		c0,167.906,0.001,335.812-0.002,503.719c0,7.196,0.118,14.396-0.084,21.587c-0.889,31.456-6.77,39.77-38.802,43.044
		C4324.184,2300.934,4285.776,2302.739,4247.449,2303.707z"/>
	<path d="M1401.95,1802.145c11.861,1.45,23.972,2.17,35.896,1.617c126.99-5.89,254.012-11.272,380.932-18.444
		c144.474-8.165,288.841-18.198,433.276-27.064c121.292-7.445,242.424-16.481,362.767-33.952
		c57.848-8.399,114.98-19.924,169.24-42.461c11.687-4.854,23.535-10.723,33.235-18.659c19.146-15.663,15.515-35.462-7.543-43.878
		c-19.491-7.116-39.372-13.272-59.324-19.008c-205.547-59.1-415.527-88.285-629.367-96.637
		c-74.153,4.472-148.443,7.372-222.43,13.779c-114.463,9.913-222.419,43.481-323.749,97.439
		c-57.237,30.479-112.023,65.077-161.24,107.659c-11.999,10.38-24.03,21.603-32.814,34.62
		C1366.341,1778.627,1376.553,1799.041,1401.95,1802.145z M1600.271,1624.62c99.269-48.526,203.829-77.677,314.095-88.528
		c139.914-13.769,279.267-9.099,418.697,5.3c153.788,15.883,304.848,45.002,452.426,91.458c6.697,2.108,13.259,4.648,21.586,7.587
		c-6.827,15.394-20.212,20.2-32.399,23.759c-42.847,12.511-85.525,27.617-129.398,34.17
		c-84.453,12.614-169.509,22.098-254.625,29.151c-116.25,9.632-232.762,16.193-349.21,23.312
		c-122.036,7.46-244.13,13.986-366.194,20.994c-50.205,2.882-100.401,5.959-156.203,9.282c8.047-7.604,11.847-10.475,14.751-14.072
		c9.621-11.918,10.412-20.281,0.307-32.156c-12.822-15.069-27.129-28.874-41.992-44.481
		C1526.38,1664.987,1562.393,1643.135,1600.271,1624.62z M1473.726,1703.68c15.918,15.215,31.231,29.856,46.249,44.212
		c-5.102,14.162-14.608,21.639-25.347,22.694c-32.121,3.157-64.461,4.101-102.513,6.234
		C1415.846,1743.683,1443.475,1724.494,1473.726,1703.68z"/>
	<path d="M1041.535,2186.026c1.006-85.101-61.947-153.446-142.975-155.222c-84.297-1.848-150.483,64.132-151.796,151.319
		c-1.231,81.817,61.51,147.42,142.774,149.284C973.339,2333.33,1040.553,2269.041,1041.535,2186.026z M892.635,2310.072
		c-71.162-0.038-125.431-54.904-125.176-126.551c0.259-72.942,55.26-131.34,124.112-131.778
		c72.795-0.464,129.915,58.753,129.567,134.323C1020.822,2254.699,963.401,2310.11,892.635,2310.072z"/>
	<path d="M2976.011,2186.239c-1.088-79.056-64.559-137.873-147.656-136.831c-80.107,1.005-139.319,62.157-138.52,143.056
		c0.818,82.699,62.286,143.495,144.522,142.941C2915.279,2334.861,2977.161,2269.697,2976.011,2186.239z M2830.201,2314.608
		c-68.119-0.794-120.18-54.39-119.659-123.188c0.539-71.195,52.104-122.115,123.143-121.604
		c70.942,0.51,122.498,52.739,121.73,123.319C2954.681,2260.731,2898.327,2315.402,2830.201,2314.608z"/>
	<path d="M4324.333,1320.913c-5.561-0.53-11.183-0.606-16.774-0.582c-79.146,0.336-158.292,0.69-237.437,1.134
		c-13.587,0.076-27.21,0.053-40.749,1.017c-21.86,1.557-33.481,12.245-36.922,33.668c-1.132,7.046-0.933,14.346-0.917,21.529
		c0.172,79.949,0.382,159.899,0.695,239.848c0.069,17.582-0.269,35.231,1.119,52.727c1.53,19.266,13.736,31.958,32.708,36.143
		c6.218,1.371,12.645,2.5,18.979,2.518c91.133,0.256,182.273,0.961,273.396,0.07c35.416-0.346,48.397-15.347,48.66-51.004
		c0.353-47.967,0.088-95.939,0.088-143.908c0.091,0,0.182,0,0.273,0c0-48.769,0.237-97.54-0.088-146.307
		C4367.167,1338.357,4353.334,1323.675,4324.333,1320.913z M4347.047,1466.102c-0.007,16.769-0.001,33.537-0.001,50.306
		c-0.102,0-0.203,0-0.304,0c0,47.909,0.237,95.82-0.105,143.727c-0.159,22.249-3.927,25.969-26.125,28.423
		c-7.916,0.875-15.941,1.031-23.917,1.031c-75.058-0.005-150.116,0.034-225.173-0.333c-13.518-0.066-27.029-1.911-40.54-2.976
		c-11.594-0.914-16.795-8.093-17.844-18.858c-0.541-5.546-0.506-11.161-0.525-16.745c-0.327-91.028-0.621-182.055-0.917-273.083
		c-0.013-3.992-0.211-8.002,0.085-11.973c1.309-17.519,3.999-20.67,21.68-21.8c19.913-1.273,39.882-2.118,59.833-2.243
		c70.266-0.441,140.533-0.497,210.799-0.685c3.992-0.011,7.989-0.013,11.975,0.163c25.285,1.124,30.93,6.681,31.08,31.621
		C4347.237,1403.819,4347.06,1434.961,4347.047,1466.102z"/>
	<path d="M4265.413,1972.358c-20.23-0.639-40.496-0.192-65.18-0.192c19.381-49.776,37.004-95.042,54.632-140.306
		c2.028-5.208,5.14-10.285,5.763-15.653c0.476-4.103-0.938-10.717-3.759-12.358c-3.961-2.307-11.088-2.989-14.907-0.859
		c-6.045,3.372-10.97,9.24-15.507,14.76c-54.817,66.693-109.496,133.497-164.078,200.382c-1.828,2.239-2.258,5.618-4.328,11.067
		c28.101,12.589,57.481,0.179,86.521,7.737c-3.658,11.023-6.787,21.547-10.622,31.808c-14.823,39.65-29.878,79.213-44.83,118.816
		c-4.226,11.197-7.546,22.091,12.068,25.736c9.888-12.027,20.115-25.103,31.004-37.603c49.36-56.661,99.025-113.057,148.241-169.843
		c6.401-7.386,18.232-14.063,12.994-26.015C4288.072,1967.623,4275.196,1972.667,4265.413,1972.358z M4218.409,1859.123
		c0.789,0.428,1.577,0.856,2.366,1.284c-0.906,0.725-1.812,1.45-2.717,2.175C4218.175,1861.428,4218.292,1860.276,4218.409,1859.123
		z M4196.21,2068.749c-21.69,24.453-42.965,49.272-68.354,78.451c12.881-48.011,36.984-86.848,42.746-134.348
		c-26.193,0-49.61,0-76.383,0c4.361-6.521,6.238-9.865,8.615-12.804c33.655-41.621,67.292-83.255,101.199-124.67
		c3.611-4.409,8.637-7.659,13.134-11.343c-11.345,32.746-22.842,65.439-33.902,98.281c-2.681,7.964-3.873,16.43-6.235,26.793
		c28.903,8.18,56.159,0.578,86.493,5.084C4240.128,2020.068,4217.962,2044.225,4196.21,2068.749z"/>
</g>
</svg>
